<svg xmlns="http://www.w3.org/2000/svg" viewBox="0 0 1080 1920"><defs><style>.cls-1{isolation:isolate;}.cls-2{fill:#e3e4e8;}.cls-3{opacity:0.2;}.cls-4{fill:#1ea799;mix-blend-mode:multiply;}</style></defs><title>BG</title><g class="cls-1"><g id="Camada_1" data-name="Camada 1"><rect class="cls-2" width="1080" height="1920"/><g class="cls-3"><path class="cls-4" d="M905,1292h0v-0.08a76.55,76.55,0,0,0-14.1,11.15c-29.5,30.78-21.92,32-74,99.41-13.49,17.46-26.34,29.32-38,37.36-16.53,7.1-36.92,5.52-59.16-19.26,0,0-43.53-96.48-191.8-96.48,0,0,116.22,64.39,138.92,127.57,24,66.8,130.72,62.36,179,11.56-7.95-11.71,8.75-25.17,10.25-27.48,1.61-2.49.87-10.15,0.7-13.09s7.13,0,7.13,0v-14.31l10.21-3s-0.73-11.78.07-14.43,8.08-3.72,15.39-4.08c2.93-.14,8.07-0.48,13.16-0.83,7.14-11,11.24-18.33,11.24-18.33,62.36-74.88,132.72-47.86,165.94-28v-47.43C1010.52,1253.09,939.59,1270,905,1292Z"/><path class="cls-4" d="M1080,1678.44c-19,12.2-35.7,22.11-47.09,27.6-36.85,17.75-261.62,139.62-351.29,214H821.41c80.7-48.22,175.19-108.09,258.59-169.87v-71.69Z"/><path class="cls-4" d="M1041.51,1562.68c-19.31,5.93-26.65,12.52-26.65,12.52L811.61,1706.62c-11.08,6.23-22.22,12.31-33.3,18.12-13.86,7.27-31.65,16.44-50.26,26h0l0,0-13.11,6.74c-32,11.42-61.55,17-81.57,10-67.21-23.42-226.72-234.32-390.46-315.15,54.5-28.2,163.78-75.27,244.29-48.69,111.47,36.81,108.87,61.4,149.46,85.09-1.38-.68,8.06,6.12,20.87,13.05,4-3.06-19.29-95.81-86.21-128.8-66.58-32.82-253.25-37.56-450.94,55.36,0,0,52.26,37,97.08,78.3,41.85,38.53,269.81,218.22,386.69,333.84-28.77,19-50.22,32.52-50.22,32.52-20.9-11-32.12-25-45.05-39.33-214.08-236.52-358.32-316.41-381.91-335.58-25.08-20.38-140.41-17-109.07-10.68,15.5,3.1,249.25,200.43,281.08,231,26.87,25.77,131.85,129.08,198,194.21l7.48,7.37H619.74l34.94-24.49h0s1.27-.12,13-8.56l82.77-54.47c19.47-12.72,39.93-26.21,59.18-38.95l0.05,0L927,1717c16.5-10.51,38.07-24.52,63.12-41.17l0.75-.49,0.39-.27c26.29-17.5,56.4-37.92,88.78-60.51v-76A300.33,300.33,0,0,1,1041.51,1562.68Z"/></g></g></g></svg>