<svg id="Camada_1" data-name="Camada 1" xmlns="http://www.w3.org/2000/svg" viewBox="0 0 1000 1000"><title>Dislike</title><path d="M19,372.35c.28,33.9,14.19,59.69,36.71,74.5C42.21,454.76,20.23,493.75,20.51,528c1.77,56.59,55.94,126.24,136.94,125.58l214.49-1.76c-35.86,102.4-28,211.84,18.74,285,28.06,44,61.54,53.6,84.64,53.41,77.8-.64,92.67-77.36,92.45-103.36-.72-87.1,11.26-127,26.35-163.82,11.9-23.8,72.88-111.7,149-112.33l142.7-1.17c55.1-.45,94.71-47.88,94.06-114.88l-40.2-389.08c-5-61.36-34.81-98.32-94.11-97.83,0,0-29.5-.06-51.6.12-11.3.09-21.8.28-28,.53-18.29.75-33.2,12.87-46.41,23-9.34,7.18-16.79,13.34-23.59,13.39-3,0-20.38-9.93-41.76-19-21.68-9.22-56.14-16.64-89-16.37L266.68,11.9c-100,.82-147.78,39.52-147.26,103.31.15,18.8,4.45,30,15,44.58C94.27,170,58.88,196,59.25,240.52c.14,16.5,8,43,18.41,49.85C58,295.63,18.7,331.75,19,372.35Zm796-291.26c23-.19,43.58,21.74,49,51.5l41,339c.26,31-23.86,65.2-56.56,65.47v-1.4l-96,.49-3.73-454c4.7-.44,9.42,2,12.11,1.7C778.78,83.09,814.66,81.1,815.06,81.09ZM169.58,316.81l5.4,0-.8-37c-4.31-1.66-20.45-6.53-20.72-38.63-.28-34.4,34.5-48.59,71.9-48.89h-.1l.41-35.3c-15.23-3.37-20.84-16.83-20.92-38.53-.31-37.9,39.33-32.62,63.65-30.42l308.89-2.54c14.8-.12,79.16,31.65,96.53,40,.3.2.5.1.8.19l3.48,422.59c-75.65,31.22-139,115-154.31,145.87-17.26,41.94-11.82,70.3-11,166.2.39,47.6-16.66,54.14-35,54.29-16.1.13-32.33-3.73-45.5-24.33-38.9-60.78-22.94-175.12,23.95-274.21l8-41.37L155,577.34c-46.62-2.22-44.32-14.64-44.61-49.83l.21-11c-.1-.5.95-30.51,16.44-43.84,13-11.21,23.6-11.69,23.6-11.69v-36.4s-15.82-2.07-24.16-7.7c-12.47-8.6-18.21-25.05-17.75-43.06C109.46,351.11,148.38,317,169.58,316.81Z"/></svg>