<svg id="Camada_1" data-name="Camada 1" xmlns="http://www.w3.org/2000/svg" viewBox="0 0 142.3 142.3"><defs><style>.cls-1{fill:#21a89a;}.cls-2{fill:#209787;}.cls-3{fill:#1382a2;}.cls-4{fill:#eaeeee;}.cls-5{fill:#e9bc85;}.cls-6{fill:#dfab76;}</style></defs><title>Ícones - Menu</title><path class="cls-1" d="M100.21,32.76l40.19,53.51a70.8,70.8,0,1,0-51.8,53.58L41.36,77Z"/><path class="cls-2" d="M140.39,86.27L100.21,32.76,41.36,77l47.23,62.9A71,71,0,0,0,140.39,86.27Z"/><circle class="cls-3" cx="71.15" cy="54.78" r="36.94"/><path class="cls-4" d="M59.09,37.17a20.67,20.67,0,0,1,2.38-1.72A18.68,18.68,0,0,1,64.25,34a17.38,17.38,0,0,1,3.19-.95,18.84,18.84,0,0,1,3.69-.34,15.93,15.93,0,0,1,5,.74,10.89,10.89,0,0,1,3.81,2.12,9.29,9.29,0,0,1,2.41,3.32,10.7,10.7,0,0,1,.84,4.31,11,11,0,0,1-.62,3.9A10.85,10.85,0,0,1,81,50a12,12,0,0,1-2.09,2.1q-1.14.89-2.16,1.64A16.84,16.84,0,0,0,75,55.24a3.33,3.33,0,0,0-1,1.66L73.19,61H66.91l-0.65-4.77a4.11,4.11,0,0,1,.3-2.53,6.78,6.78,0,0,1,1.47-2,17.21,17.21,0,0,1,2.09-1.66,20.4,20.4,0,0,0,2.16-1.69,9.42,9.42,0,0,0,1.7-2,4.89,4.89,0,0,0,.7-2.65,3.62,3.62,0,0,0-1.17-2.83,4.63,4.63,0,0,0-3.21-1.05,9,9,0,0,0-2.62.33,10.54,10.54,0,0,0-1.81.73q-0.76.4-1.32,0.73a2.23,2.23,0,0,1-1.13.33,2,2,0,0,1-1.9-1.1Zm5.45,34.57a4.91,4.91,0,0,1,.4-2,5,5,0,0,1,1.1-1.6,5.41,5.41,0,0,1,5.76-1.08,5.43,5.43,0,0,1,1.66,1.08A4.9,4.9,0,0,1,75,71.74a5,5,0,0,1-.4,2,4.87,4.87,0,0,1-1.11,1.61,5.19,5.19,0,0,1-1.66,1.07,5.39,5.39,0,0,1-2,.38,5.46,5.46,0,0,1-2.07-.38A5,5,0,0,1,64.54,71.74Z"/><path class="cls-5" d="M117.81,108.76V93.66a5.33,5.33,0,0,0-4.6-5.4,5.13,5.13,0,0,0-5.66,5.1V91.61a5.33,5.33,0,0,0-4.6-5.4,5.13,5.13,0,0,0-5.66,5.1V89.55a5.33,5.33,0,0,0-4.6-5.4A5.13,5.13,0,0,0,87,89.26V60.83a5.33,5.33,0,0,0-4.6-5.4,5.13,5.13,0,0,0-5.66,5.1v48.22a20.52,20.52,0,0,0,20.52,20.52h0A20.52,20.52,0,0,0,117.81,108.76Z"/><path class="cls-6" d="M80.88,108.76V60.53a5.11,5.11,0,0,1,3.07-4.67,4.72,4.72,0,0,0-1.51-.43,5.13,5.13,0,0,0-5.66,5.1v48.22a20.52,20.52,0,0,0,20.52,20.52c0.69,0,1.38,0,2.05-.1A20.52,20.52,0,0,1,80.88,108.76Z"/><path class="cls-6" d="M89.08,92.34a2.05,2.05,0,0,0,2.05-2.05v-1a5.11,5.11,0,0,1,3.07-4.67,4.72,4.72,0,0,0-1.51-.43A5.13,5.13,0,0,0,87,89.26v1a2.05,2.05,0,0,0,2.05,2.05h0Z"/><path class="cls-6" d="M99.35,94.39a2.05,2.05,0,0,0,2.05-2.05v-1a5.11,5.11,0,0,1,3.07-4.67,4.72,4.72,0,0,0-1.51-.43,5.13,5.13,0,0,0-5.66,5.1v1a2.05,2.05,0,0,0,2.05,2.05h0Z"/><path class="cls-6" d="M109.61,96.44a2.05,2.05,0,0,0,2.05-2.05v-1a5.11,5.11,0,0,1,3.07-4.67,4.72,4.72,0,0,0-1.51-.43,5.13,5.13,0,0,0-5.66,5.1v1a2.05,2.05,0,0,0,2.05,2.05h0Z"/></svg>