<?xml version="1.0" encoding="utf-8"?>
<!-- Svg Vector Icons : http://www.onlinewebfonts.com/icon -->
<!DOCTYPE svg PUBLIC "-//W3C//DTD SVG 1.1//EN" "http://www.w3.org/Graphics/SVG/1.1/DTD/svg11.dtd">
<svg version="1.1" xmlns="http://www.w3.org/2000/svg" xmlns:xlink="http://www.w3.org/1999/xlink" x="0px" y="0px" viewBox="0 0 1000 1000" enable-background="new 0 0 1000 1000" xml:space="preserve">
<metadata> Svg Vector Icons : http://www.onlinewebfonts.com/icon </metadata>
<g><path d="M962.8,129.8l-76.2-92.6C875.7,20.9,853.9,10,826.7,10H173.3c-27.2,0-49,10.9-65.3,27.2l-70.8,92.6C20.9,151.6,10,173.3,10,200.6v680.6C10,941,59,990,118.9,990h762.2C941,990,990,941,990,881.1V200.6C990,173.3,979.1,151.6,962.8,129.8L962.8,129.8z M500,799.4L200.6,500h190.6V391.1h217.8V500h190.6L500,799.4L500,799.4z M124.3,118.9l43.6-54.4h653.3l49,54.4H124.3L124.3,118.9z"/></g>
</svg>