<svg id="Camada_1" data-name="Camada 1" xmlns="http://www.w3.org/2000/svg" viewBox="0 0 142.3 142.3"><defs><style>.cls-1{fill:#21a89a;}.cls-2{fill:#209787;}.cls-3{fill:#fff;}.cls-4{fill:#cdd2d6;}</style></defs><title>Ícones - Menu</title><circle class="cls-1" cx="71.15" cy="71.15" r="70.87"/><path class="cls-2" d="M141.72,77.48L124.29,56.65l-2.67.68-8.35-9.8,3.32,7.94-54,42.3L18.18,57.63l69.05,82.53A70.89,70.89,0,0,0,141.72,77.48Z"/><path class="cls-3" d="M81.66,84.41L62.6,97.77S44.79,80.21,41.45,77C38.8,74.46,19.29,58,18,57.74c-2.62-.52,7-0.81,9.1.89s14,8.27,31.87,28a13,13,0,0,0,3.76,3.28s10.11-6.35,14.53-10.21Z"/><path class="cls-3" d="M120,53s3.31,7.47-1.72,12.12c-3.25,3-12.19,9.27-15.56,10.89S77.13,89.66,71.57,95.49s-2.4,7.32-2.4,7.32S144.06,63.52,120,53Z"/><path class="cls-3" d="M110.25,44.16c-6.79-6.56-14.73-5-18.22-2.75h0a6.39,6.39,0,0,0-1.18.93C88.39,44.91,89,45,84.68,50.64a14.45,14.45,0,0,1-3.17,3.12c-1.38.59-3.08,0.46-4.94-1.61,0,0-3.63-8.05-16-8.05,0,0,9.7,5.37,11.59,10.65,2,5.57,10.91,5.2,14.94,1-0.66-1,.73-2.1.86-2.29A2.67,2.67,0,0,0,88,52.33c0-.25.61,0,0.61,0V51.14l0.84-.25a7,7,0,0,1,0-1.2,1.75,1.75,0,0,1,1.28-.34l1.1-.07c0.6-.92.94-1.53,0.94-1.53,7.11-8.54,15.46-1.2,15.46-1.2,9,7.63.51,15.4-7,18.52A182.43,182.43,0,0,1,81.45,77.54c-1.43.75-3.35,1.74-5.29,2.74-2.67,1-5.14,1.42-6.81.84-5.61-2-18.92-19.55-32.58-26.3,4.55-2.35,13.67-6.28,20.39-4.06,9.3,3.07,9.09,5.12,12.47,7.1a12,12,0,0,0,1.74,1.09c0.33-.26-1.61-8-7.19-10.75S43,45.05,26.55,52.81a94.25,94.25,0,0,1,8.1,6.53c4.12,3.79,29.86,24,36.49,32.44a14.33,14.33,0,0,0,2.32-1.62c5-3.05,17.33-11.37,17.82-11.66,1.93-1.15,10.17-6.39,19.71-13.24C119.14,59.41,118,51.62,110.25,44.16Z"/><path class="cls-4" d="M101.19,65.06a6.35,6.35,0,0,1,2.23-1c1.62-.5,7.1-4.4,7.89-7.26s1.16-4.17-.23-6.94c0,0,4.9.89,5.51,5.67,0,0,.91,6.08-7.28,11l-10.12,7L84.07,83.27,71.14,91.79l-8.54,6-4.75-4.69Z"/></svg>