<svg id="Camada_1" data-name="Camada 1" xmlns="http://www.w3.org/2000/svg" viewBox="0 0 142.3 142.3"><defs><style>.cls-1{fill:#21a89a;}.cls-2{fill:#209787;}.cls-3{fill:#e9bc85;}.cls-4{fill:#eaeeee;}.cls-5{fill:#1382a2;}</style></defs><title>Ícones - Menu</title><circle class="cls-1" cx="71.15" cy="71.14" r="70.87"/><path class="cls-2" d="M65.8,141.83L25.88,101.91,55.1,89.51,89,56.58,92.43,30.9,141.5,80A70.9,70.9,0,0,1,71.18,142C69.37,142,67.58,142,65.8,141.83Z"/><path class="cls-3" d="M62.92,63.95A26.25,26.25,0,0,1,73.42,53C82.25,47.9,85.47,36.62,85.9,33.49s8-6.87,8.92,3.34a24.12,24.12,0,0,1-5.29,17.11H111c6.56-.92,7.59,9.81,1.15,9.92l-2,0-0.06.55h1.24c5.21,0,5.21,10.21,0,10.21H111c3.91,1.29,3.65,10-1.18,10h-1.38v0c3.31,0.72,3,3.8,3,6.36,0,4.31-11.22,6.59-14,7.36-8.14,2.21-18.87-.26-28-1.09l-5.72-.66H51.13V63.95H62.92Z"/><path class="cls-4" d="M46.85,61.64H61.31V99H46.85V61.64Z"/><path class="cls-5" d="M25.88,58.71H51.65v43.2H25.88V58.71Z"/></svg>