<svg id="Camada_1" data-name="Camada 1" xmlns="http://www.w3.org/2000/svg" viewBox="0 0 142.3 142.3"><defs><style>.cls-1{fill:#21a89a;}.cls-2{fill:#209787;}.cls-3{fill:#eaeeee;}.cls-4{fill:#b0b5b9;}.cls-5{fill:#cdd2d6;}.cls-6{fill:#1382a2;}.cls-7{fill:#31495c;}</style></defs><title>Ícones - Menu</title><path class="cls-1" d="M58.78,96.15l32.93-32,3.35-25L140.7,84.81a70.87,70.87,0,1,0-76.88,56.83Z"/><path class="cls-2" d="M140.7,84.81L95.07,39.18l-3.35,25-32.93,32L38.9,116.72l24.92,24.92a71.68,71.68,0,0,0,7.34.38A70.89,70.89,0,0,0,140.7,84.81Z"/><path class="cls-3" d="M105.92,49.44V113a6.19,6.19,0,0,1-6.18,6.18H42.57A6.18,6.18,0,0,1,36.38,113V29.33a6.18,6.18,0,0,1,6.18-6.18H79.62Z"/><polygon class="cls-4" points="83.21 48.87 105.92 58.23 105.92 49.44 93.04 45.64 83.21 48.87"/><path class="cls-5" d="M105.92,49.44H85.8a6.18,6.18,0,0,1-6.18-6.18V23.15Z"/><path class="cls-6" d="M86.36,76.62H55.94a2,2,0,0,0-2,2v26.47a2,2,0,0,0,2,2H86.36a2,2,0,0,0,2-2V78.6A2,2,0,0,0,86.36,76.62ZM57.91,89.32H69.17v5H57.91v-5Zm15.21,0H84.38v5H73.12v-5Zm11.26-4H73.12v-4.8H84.38v4.8h0Zm-15.21-4.8v4.8H57.91v-4.8H69.17ZM57.91,98.29H69.17v4.8H57.91v-4.8Zm15.21,4.8v-4.8H84.38v4.8H73.12Z"/><rect class="cls-7" x="45.27" y="64.28" width="51.75" height="1.75"/><rect class="cls-7" x="45.27" y="57.78" width="51.75" height="1.75"/><rect class="cls-7" x="45.27" y="50.57" width="29.58" height="1.75"/><rect class="cls-7" x="45.27" y="44.07" width="29.58" height="1.75"/></svg>