<svg xmlns="http://www.w3.org/2000/svg" viewBox="0 0 141.73 141.76"><defs><style>.cls-1{fill:#62a79a;}.cls-2{fill:#599587;}.cls-3{fill:#ddbb87;}.cls-4{fill:#ebedee;}.cls-5{fill:#4b819f;}</style></defs><title>Menu4</title><g id="Camada_2" data-name="Camada 2"><g id="Camada_1-2" data-name="Camada 1"><circle class="cls-1" cx="70.87" cy="70.87" r="70.87"/><path class="cls-2" d="M65.52,141.56,25.6,101.64l29.22-12.4L88.7,56.31l3.45-25.68L141.22,79.7A70.9,70.9,0,0,1,70.9,141.76C69.08,141.76,67.3,141.7,65.52,141.56Z"/><path class="cls-3" d="M62.64,63.68a26.25,26.25,0,0,1,10.5-10.93C82,47.63,85.19,36.35,85.62,33.22s8-6.87,8.92,3.34a24.12,24.12,0,0,1-5.29,17.11h21.43c6.56-.92,7.59,9.81,1.15,9.92l-2,0-.06.55H111c5.21,0,5.21,10.21,0,10.21h-.26c3.91,1.29,3.65,10-1.18,10h-1.38v0c3.31.72,3,3.8,3,6.36,0,4.31-11.22,6.59-14,7.36-8.14,2.21-18.87-.26-28-1.09l-5.72-.66H50.85V63.68H62.64Z"/><path class="cls-4" d="M46.56,61.38H61V98.74H46.56Z"/><path class="cls-5" d="M25.6,58.44H51.37v43.2H25.6Z"/></g></g></svg>