<svg xmlns="http://www.w3.org/2000/svg" viewBox="0 0 141.73 141.73"><defs><style>.cls-1{fill:#62a79a;}.cls-2{fill:#599587;}.cls-3{fill:#3b4a5c;}.cls-4{fill:#ebedee;}.cls-5{fill:#cdd0d4;}.cls-6{fill:#3b6587;}</style></defs><title>Menu2</title><g id="Camada_2" data-name="Camada 2"><g id="Camada_1-2" data-name="Camada 1"><path class="cls-1" d="M140.78,82.41a70.86,70.86,0,1,0-73.68,59.22Z"/><path class="cls-2" d="M140.78,82.41,87.52,29.15,71.68,45,50.3,66.36,41.78,92.58l-.36,23.36,25.69,25.69q1.87.1,3.76.1A70.87,70.87,0,0,0,140.78,82.41Z"/><rect class="cls-3" x="58.61" y="52.38" width="24.75" height="2.95"/><path class="cls-4" d="M39.4,62.35s5.22-10.49,7.88-15.7c4.39,0,8.78,0,13.17,0,2,1.87,3.89,3.82,5.85,5.71-2.41,0-4.81,0-7.21,0q0,1.2,0,2.4,11.8,0,23.6,0c0-.79,0-1.58,0-2.37-4.16,0-8.33,0-12.49,0,1.8-1.94,3.67-3.81,5.51-5.72,6.26,0,12.53,0,18.79,0,2.65,5.2,7.84,15.63,7.84,15.63Z"/><path class="cls-5" d="M39.39,112.65c0-16.76,0-50.3,0-50.3l62.93-.07s0,21,.05,31.5c0,6.28,0,12.56,0,18.84a4.78,4.78,0,0,1-2.7,4.4c-1.37.68-2.94.42-4.41.49q-24.36,0-48.72,0a11.08,11.08,0,0,1-4.32-.41A4.86,4.86,0,0,1,39.39,112.65ZM51.21,86c-.08,5.25,0,10.49,0,15.74,13.12,0,26.25,0,39.37,0q0-7.88,0-15.76c-3.79,0-7.58,0-11.37,0C69.86,86.09,60.54,86,51.21,86Z"/><path class="cls-3" d="M51.21,86c9.33-.07,18.66.06,28,0,3.79,0,7.58,0,11.37,0q0,7.88,0,15.76c-13.12,0-26.25,0-39.37,0C51.22,96.52,51.13,91.27,51.21,86Z"/><path class="cls-6" d="M74.57,16.6c5.24,5,10.4,10.1,15.62,15.12-4.83,5-9.65,10-14.49,15-1.84,1.91-3.7,3.78-5.51,5.72-.67.57-1.18,1.45-2,1.82C67.56,53.62,67,53,66.3,52.37c-2-1.89-3.86-3.84-5.85-5.71-2.49-2.41-5-4.79-7.44-7.26-.34-.29.1-.63.29-.85Q64,27.6,74.57,16.6Z"/></g></g></svg>