<svg xmlns="http://www.w3.org/2000/svg" viewBox="0 0 141.73 141.73"><defs><style>.cls-1{fill:#62a79a;}.cls-2{fill:#599587;}.cls-3{fill:#ebedee;}.cls-4{fill:#b0b4b7;}.cls-5{fill:#cdd0d4;}.cls-6{fill:#4b819f;}.cls-7{fill:#3b4a5c;}</style></defs><title>Menu5</title><g id="Camada_2" data-name="Camada 2"><g id="Camada_1-2" data-name="Camada 1"><path class="cls-1" d="M58.5,95.87l32.93-32,3.35-25,45.63,45.63a70.87,70.87,0,1,0-76.88,56.83Z"/><path class="cls-2" d="M140.41,84.52,94.78,38.89l-3.35,25-32.93,32L38.61,116.44l24.92,24.92a71.68,71.68,0,0,0,7.34.38A70.89,70.89,0,0,0,140.41,84.52Z"/><path class="cls-3" d="M105.63,49.16v63.52a6.19,6.19,0,0,1-6.18,6.18H42.29a6.18,6.18,0,0,1-6.18-6.18V29a6.18,6.18,0,0,1,6.18-6.18H79.34Z"/><polygon class="cls-4" points="82.92 48.59 105.63 57.94 105.63 49.16 92.76 45.36 82.92 48.59"/><path class="cls-5" d="M105.63,49.16H85.52A6.18,6.18,0,0,1,79.34,43V22.86Z"/><path class="cls-6" d="M86.08,76.34H55.66a2,2,0,0,0-2,2v26.47a2,2,0,0,0,2,2H86.08a2,2,0,0,0,2-2V78.31A2,2,0,0,0,86.08,76.34ZM57.63,89H68.89v5H57.63Zm15.21,0H84.1v5H72.84Zm11.26-4H72.84v-4.8H84.1v4.8Zm-15.21-4.8v4.8H57.63v-4.8ZM57.63,98H68.89v4.8H57.63Zm15.21,4.8V98H84.1v4.8Z"/><rect class="cls-7" x="44.99" y="64" width="51.75" height="1.75"/><rect class="cls-7" x="44.99" y="57.5" width="51.75" height="1.75"/><rect class="cls-7" x="44.99" y="50.28" width="29.58" height="1.75"/><rect class="cls-7" x="44.99" y="43.78" width="29.58" height="1.75"/></g></g></svg>