<svg xmlns="http://www.w3.org/2000/svg" viewBox="0 0 141.73 141.73"><defs><style>.cls-1{fill:#62a79a;}.cls-2{fill:#599587;}.cls-3{fill:#fff;}.cls-4{fill:#cdd0d4;}</style></defs><title>Menu6</title><g id="Camada_2" data-name="Camada 2"><g id="Camada_1-2" data-name="Camada 1"><circle class="cls-1" cx="70.87" cy="70.87" r="70.87"/><path class="cls-2" d="M141.44,77.2,124,56.37l-2.67.68L113,47.25l3.32,7.94-54,42.3L17.9,57.35l69.05,82.53A70.89,70.89,0,0,0,141.44,77.2Z"/><path class="cls-3" d="M81.38,84.13,62.31,97.49S44.51,79.93,41.17,76.73c-2.66-2.55-22.16-19-23.46-19.27-2.62-.52,7-.81,9.1.89s14,8.27,31.87,28a13,13,0,0,0,3.76,3.28S72.56,83.28,77,79.42Z"/><path class="cls-3" d="M119.7,52.68S123,60.15,118,64.8c-3.25,3-12.19,9.27-15.56,10.89S76.84,89.37,71.28,95.21s-2.4,7.32-2.4,7.32S143.77,63.23,119.7,52.68Z"/><path class="cls-3" d="M110,43.88c-6.79-6.56-14.73-5-18.22-2.75h0a6.39,6.39,0,0,0-1.18.93c-2.46,2.57-1.83,2.67-6.17,8.3a14.45,14.45,0,0,1-3.17,3.12c-1.38.59-3.08.46-4.94-1.61,0,0-3.63-8.05-16-8.05,0,0,9.7,5.37,11.59,10.65,2,5.57,10.91,5.2,14.94,1-.66-1,.73-2.1.86-2.29A2.67,2.67,0,0,0,87.74,52c0-.25.61,0,.61,0V50.85l.84-.25a7,7,0,0,1,0-1.2c.07-.22.67-.31,1.28-.34l1.1-.07c.6-.92.94-1.53.94-1.53,7.11-8.54,15.46-1.2,15.46-1.2,9,7.63.51,15.4-7,18.52A182.43,182.43,0,0,1,81.17,77.25C79.74,78,77.82,79,75.88,80c-2.67,1-5.14,1.42-6.81.84-5.61-2-18.92-19.55-32.58-26.3,4.55-2.35,13.67-6.28,20.39-4.06,9.3,3.07,9.09,5.12,12.47,7.1a12,12,0,0,0,1.74,1.09c.33-.26-1.61-8-7.19-10.75s-21.13-3.13-37.63,4.62a94.25,94.25,0,0,1,8.1,6.53c4.12,3.79,29.86,24,36.49,32.44a14.33,14.33,0,0,0,2.32-1.62c5-3.05,17.33-11.37,17.82-11.66,1.93-1.15,10.17-6.39,19.71-13.24C118.85,59.12,117.68,51.34,110,43.88Z"/><path class="cls-4" d="M100.91,64.77a6.35,6.35,0,0,1,2.23-1c1.62-.5,7.1-4.4,7.89-7.26s1.16-4.17-.23-6.94c0,0,4.9.89,5.51,5.67,0,0,.91,6.08-7.28,11l-10.12,7L83.79,83,70.85,91.5l-8.54,6L57.56,92.8Z"/></g></g></svg>