<svg id="Camada_1" data-name="Camada 1" xmlns="http://www.w3.org/2000/svg" viewBox="0 0 142.3 142.3"><defs><style>.cls-1{fill:#21a89a;}.cls-2{fill:#209787;}.cls-3{fill:#31495c;}.cls-4{fill:#eaeeee;}.cls-5{fill:#cdd2d6;}.cls-6{fill:#0c6589;}</style></defs><title>Ícones - Menu</title><path class="cls-1" d="M141.07,82.69a70.86,70.86,0,1,0-73.68,59.22Z"/><path class="cls-2" d="M141.07,82.69L87.8,29.43,72,45.27,50.59,66.65,42.06,92.87,41.7,116.23l25.69,25.69q1.87,0.1,3.76.1A70.87,70.87,0,0,0,141.07,82.69Z"/><rect class="cls-3" x="58.89" y="52.67" width="24.75" height="2.95"/><path class="cls-4" d="M39.68,62.64s5.22-10.49,7.88-15.7c4.39,0,8.78,0,13.17,0,2,1.87,3.89,3.82,5.85,5.71-2.41,0-4.81,0-7.21,0q0,1.2,0,2.4,11.8,0,23.6,0c0-.79,0-1.58,0-2.37-4.16,0-8.33,0-12.49,0,1.8-1.94,3.67-3.81,5.51-5.72,6.26,0,12.53,0,18.79,0,2.65,5.2,7.84,15.63,7.84,15.63Z"/><path class="cls-5" d="M39.67,112.93c0-16.76,0-50.3,0-50.3l62.93-.07s0,21,.05,31.5c0,6.28,0,12.56,0,18.84a4.78,4.78,0,0,1-2.7,4.4c-1.37.68-2.94,0.42-4.41,0.49q-24.36,0-48.72,0a11.08,11.08,0,0,1-4.32-.41A4.86,4.86,0,0,1,39.67,112.93ZM51.49,86.31c-0.08,5.25,0,10.49,0,15.74,13.12,0,26.25,0,39.37,0q0-7.88,0-15.76c-3.79,0-7.58,0-11.37,0C70.15,86.37,60.82,86.24,51.49,86.31Z"/><path class="cls-3" d="M51.49,86.31c9.33-.07,18.66.06,28,0,3.79,0,7.58,0,11.37,0q0,7.88,0,15.76c-13.12,0-26.25,0-39.37,0C51.5,96.8,51.41,91.56,51.49,86.31Z"/><path class="cls-6" d="M74.85,16.88c5.24,5,10.4,10.1,15.62,15.12C85.64,37,80.83,42,76,47c-1.84,1.91-3.7,3.78-5.51,5.72a10.78,10.78,0,0,1-2,1.82c-0.68-.58-1.28-1.24-1.94-1.84-2-1.89-3.86-3.84-5.85-5.71-2.49-2.41-5-4.79-7.44-7.26-0.34-.29.1-0.63,0.29-0.85Q64.24,27.88,74.85,16.88Z"/></svg>