<svg xmlns="http://www.w3.org/2000/svg" viewBox="0 0 141.73 141.73"><defs><style>.cls-1{fill:#62a79a;}.cls-2{fill:#599587;}.cls-3{fill:#3b6587;}.cls-4{fill:#ebedee;}.cls-5{fill:#4b819f;}.cls-6{fill:#3b4a5c;}</style></defs><title>Menu3</title><g id="Camada_2" data-name="Camada 2"><g id="Camada_1-2" data-name="Camada 1"><circle class="cls-1" cx="70.87" cy="70.87" r="70.87"/><path class="cls-2" d="M141.34,78.35,94.49,31.5,50,65.3,22.08,81.39,49.47,108.5,41,114.77l27,26.9c.92,0,1.85.06,2.78.06A70.87,70.87,0,0,0,141.34,78.35Z"/><path class="cls-3" d="M52.49,116.54H45.14a5.77,5.77,0,0,1-5.77-5.77v-32h18.9v32A5.77,5.77,0,0,1,52.49,116.54Z"/><rect class="cls-3" x="78.74" y="31.5" width="15.75" height="70.87"/><path class="cls-4" d="M78.74,102.36S73.65,86.61,55.12,86.61H35.43A19.68,19.68,0,0,1,15.75,66.93h0A19.68,19.68,0,0,1,35.43,47.24H55.12c18.53,0,23.62-15.75,23.62-15.75Z"/><path class="cls-3" d="M15.75,66.93h0A19.68,19.68,0,0,0,35.15,86.61V47.25A19.68,19.68,0,0,0,15.75,66.93Z"/><path class="cls-5" d="M110.24,69.32h-7.87a2.39,2.39,0,0,1,0-4.77h7.87a2.39,2.39,0,1,1,0,4.77Z"/><path class="cls-5" d="M102.36,57.5a2.39,2.39,0,0,1-1.4-4.32l5.25-3.82A2.39,2.39,0,1,1,109,53.23L103.77,57A2.38,2.38,0,0,1,102.36,57.5Z"/><path class="cls-5" d="M107.13,84.23a2.37,2.37,0,0,1-1.3-.39l-4.77-3.1a2.39,2.39,0,0,1,2.6-4l4.77,3.1a2.39,2.39,0,0,1-1.3,4.39Z"/><path class="cls-6" d="M60.54,30.18a12.43,12.43,0,0,0,1.92-6.59,12.64,12.64,0,1,0-12.7,12.47,12.43,12.43,0,0,0,6.59-1.92l6,1.92Z"/><path class="cls-6" d="M64.26,38l-7.67-2.39a13.5,13.5,0,0,1-6.83,1.79,13.84,13.84,0,1,1,13.79-13.9,13.22,13.22,0,0,1-1.79,6.72ZM49.76,12.08a11.38,11.38,0,0,0,0,22.76,11.57,11.57,0,0,0,6-1.68l.48-.24,4.31,1.33-1.32-4.31.24-.48a11.57,11.57,0,0,0,1.68-6A11.3,11.3,0,0,0,49.76,12.08Z"/><rect class="cls-4" x="43.89" y="22.27" width="2.39" height="2.39"/><rect class="cls-4" x="48.56" y="22.27" width="2.39" height="2.39"/><rect class="cls-4" x="53.36" y="22.27" width="2.39" height="2.39"/></g></g></svg>