<svg xmlns="http://www.w3.org/2000/svg" viewBox="0 0 141.73 141.73"><defs><style>.cls-1{fill:#62a79a;}.cls-2{fill:#599587;}.cls-3{fill:#4b819f;}.cls-4{fill:#ebedee;}.cls-5{fill:#ddbb87;}.cls-6{fill:#d1aa78;}</style></defs><title>Menu1</title><g id="Camada_2" data-name="Camada 2"><g id="Camada_1-2" data-name="Camada 1"><path class="cls-1" d="M99.93,32.47,140.11,86a70.8,70.8,0,1,0-51.8,53.58L41.07,76.67Z"/><path class="cls-2" d="M140.11,86,99.93,32.47,41.07,76.67l47.23,62.9A71,71,0,0,0,140.11,86Z"/><circle class="cls-3" cx="70.87" cy="54.5" r="36.94"/><path class="cls-4" d="M58.81,36.89a20.67,20.67,0,0,1,2.38-1.72A18.68,18.68,0,0,1,64,33.76a17.38,17.38,0,0,1,3.19-.95,18.84,18.84,0,0,1,3.69-.34,15.93,15.93,0,0,1,5,.74,10.89,10.89,0,0,1,3.81,2.12,9.29,9.29,0,0,1,2.41,3.32A10.7,10.7,0,0,1,82.92,43a11,11,0,0,1-.62,3.9,10.85,10.85,0,0,1-1.57,2.86,12,12,0,0,1-2.09,2.1q-1.14.89-2.16,1.64A16.84,16.84,0,0,0,74.7,55a3.33,3.33,0,0,0-1,1.66l-.83,4.15H66.63L66,56a4.11,4.11,0,0,1,.3-2.53,6.78,6.78,0,0,1,1.47-2,17.21,17.21,0,0,1,2.09-1.66A20.4,20.4,0,0,0,72,48.16a9.42,9.42,0,0,0,1.7-2,4.89,4.89,0,0,0,.7-2.65,3.62,3.62,0,0,0-1.17-2.83A4.63,4.63,0,0,0,70,39.61a9,9,0,0,0-2.62.33,10.54,10.54,0,0,0-1.81.73q-.76.4-1.32.73a2.23,2.23,0,0,1-1.13.33,2,2,0,0,1-1.9-1.1Zm5.45,34.57a4.91,4.91,0,0,1,.4-2,5,5,0,0,1,1.1-1.6,5.41,5.41,0,0,1,5.76-1.08,5.43,5.43,0,0,1,1.66,1.08,4.9,4.9,0,0,1,1.51,3.58,5,5,0,0,1-.4,2,4.87,4.87,0,0,1-1.11,1.61,5.19,5.19,0,0,1-1.66,1.07,5.39,5.39,0,0,1-2,.38,5.46,5.46,0,0,1-2.07-.38,5,5,0,0,1-3.14-4.68Z"/><path class="cls-5" d="M117.53,108.47V93.38a5.33,5.33,0,0,0-4.6-5.4,5.13,5.13,0,0,0-5.66,5.1V91.32a5.33,5.33,0,0,0-4.6-5.4A5.13,5.13,0,0,0,97,91V89.27a5.33,5.33,0,0,0-4.6-5.4A5.13,5.13,0,0,0,86.75,89V60.54a5.33,5.33,0,0,0-4.6-5.4,5.13,5.13,0,0,0-5.66,5.1v48.22A20.52,20.52,0,0,0,97,129h0A20.52,20.52,0,0,0,117.53,108.47Z"/><path class="cls-6" d="M80.59,108.47V60.25a5.11,5.11,0,0,1,3.07-4.67,4.72,4.72,0,0,0-1.51-.43,5.13,5.13,0,0,0-5.66,5.1v48.22A20.52,20.52,0,0,0,97,129c.69,0,1.38,0,2.05-.1A20.52,20.52,0,0,1,80.59,108.47Z"/><path class="cls-6" d="M88.8,92.06A2.05,2.05,0,0,0,90.85,90V89a5.11,5.11,0,0,1,3.07-4.67,4.72,4.72,0,0,0-1.51-.43A5.13,5.13,0,0,0,86.75,89v1a2.05,2.05,0,0,0,2.05,2.05Z"/><path class="cls-6" d="M99.06,94.11a2.05,2.05,0,0,0,2.05-2.05V91a5.11,5.11,0,0,1,3.07-4.67,4.72,4.72,0,0,0-1.51-.43A5.13,5.13,0,0,0,97,91v1a2.05,2.05,0,0,0,2.05,2.05Z"/><path class="cls-6" d="M109.32,96.16a2.05,2.05,0,0,0,2.05-2.05v-1a5.11,5.11,0,0,1,3.07-4.67,4.72,4.72,0,0,0-1.51-.43,5.13,5.13,0,0,0-5.66,5.1v1a2.05,2.05,0,0,0,2.05,2.05Z"/></g></g></svg>