<svg id="Camada_1" data-name="Camada 1" xmlns="http://www.w3.org/2000/svg" viewBox="0 0 142.3 142.3"><defs><style>.cls-1{fill:#21a89a;}.cls-2{fill:#209787;}.cls-3{fill:#0c6589;}.cls-4{fill:#eaeeee;}.cls-5{fill:#1382a2;}.cls-6{fill:#31495c;}</style></defs><title>Ícones - Menu</title><circle class="cls-1" cx="71.15" cy="71.15" r="70.87"/><path class="cls-2" d="M141.62,78.63L94.77,31.78,50.31,65.58,22.37,81.68l27.39,27.11-8.43,6.27,27,26.9c0.92,0,1.85.06,2.78,0.06A70.87,70.87,0,0,0,141.62,78.63Z"/><path class="cls-3" d="M52.78,116.82H45.43A5.77,5.77,0,0,1,39.65,111V79h18.9v32A5.77,5.77,0,0,1,52.78,116.82Z"/><rect class="cls-3" x="79.02" y="31.78" width="15.75" height="70.87"/><path class="cls-4" d="M79,102.65S73.93,86.9,55.4,86.9H35.72A19.68,19.68,0,0,1,16,67.21h0A19.68,19.68,0,0,1,35.72,47.53H55.4C73.93,47.53,79,31.78,79,31.78v70.87Z"/><path class="cls-3" d="M16,67.21h0A19.68,19.68,0,0,0,35.44,86.89V47.53A19.68,19.68,0,0,0,16,67.21Z"/><path class="cls-5" d="M110.52,69.6h-7.87a2.39,2.39,0,1,1,0-4.77h7.87A2.39,2.39,0,1,1,110.52,69.6Z"/><path class="cls-5" d="M102.65,57.79a2.39,2.39,0,0,1-1.4-4.32l5.25-3.82a2.39,2.39,0,1,1,2.81,3.86L104,57.33A2.38,2.38,0,0,1,102.65,57.79Z"/><path class="cls-5" d="M107.42,84.51a2.37,2.37,0,0,1-1.3-.39L101.35,81a2.39,2.39,0,1,1,2.6-4l4.77,3.1A2.39,2.39,0,0,1,107.42,84.51Z"/><path class="cls-6" d="M60.83,30.46a12.43,12.43,0,0,0,1.92-6.59A12.64,12.64,0,1,0,50,36.34a12.43,12.43,0,0,0,6.59-1.92l6,1.92Z"/><path class="cls-6" d="M64.55,38.26l-7.67-2.39A13.5,13.5,0,0,1,50,37.66a13.84,13.84,0,1,1,13.79-13.9A13.22,13.22,0,0,1,62,30.48ZM50,12.37a11.38,11.38,0,0,0,0,22.76,11.57,11.57,0,0,0,6-1.68l0.48-.24,4.31,1.33-1.32-4.31,0.24-.48a11.57,11.57,0,0,0,1.68-6A11.3,11.3,0,0,0,50,12.37Z"/><rect class="cls-4" x="44.17" y="22.56" width="2.39" height="2.39"/><rect class="cls-4" x="48.84" y="22.56" width="2.39" height="2.39"/><rect class="cls-4" x="53.64" y="22.56" width="2.39" height="2.39"/></svg>