<?xml version="1.0" standalone="no"?>
<!DOCTYPE svg PUBLIC "-//W3C//DTD SVG 20010904//EN"
 "http://www.w3.org/TR/2001/REC-SVG-20010904/DTD/svg10.dtd">
<svg version="1.0" xmlns="http://www.w3.org/2000/svg"
 width="512.000000pt" height="512.000000pt" viewBox="0 0 512.000000 512.000000"
 preserveAspectRatio="xMidYMid meet">

<g transform="translate(0.000000,512.000000) scale(0.100000,-0.100000)"
fill="#000000" stroke="none">
<path d="M0 2560 l0 -2560 2560 0 2560 0 0 2560 0 2560 -2560 0 -2560 0 0
-2560z m2668 2103 c90 -56 123 -183 74 -284 -16 -33 -149 -170 -506 -521 -515
-508 -504 -498 -601 -498 -78 1 -158 56 -189 132 -20 48 -20 128 -1 176 11 25
169 190 498 520 419 420 488 485 527 497 65 21 143 12 198 -22z m302 -498
c173 -45 366 -170 560 -365 194 -194 318 -386 365 -565 30 -118 66 -72 -435
-569 -419 -415 -452 -446 -484 -446 -88 0 -222 47 -340 118 -37 23 -70 42 -73
42 -3 0 -365 -358 -804 -795 -763 -758 -802 -796 -871 -829 -99 -47 -174 -55
-265 -28 -50 16 -79 32 -112 63 -65 63 -85 116 -85 219 1 74 5 94 33 155 30
67 64 103 837 875 l804 806 -31 49 c-72 112 -128 269 -129 355 0 33 27 62 447
482 436 436 449 448 487 448 21 0 64 -7 96 -15z m1304 -1137 c56 -17 121 -84
136 -140 16 -56 7 -140 -19 -181 -11 -17 -235 -246 -498 -509 -433 -431 -482
-477 -523 -488 -142 -38 -273 46 -287 184 -11 105 -21 94 515 629 425 425 494
490 533 502 56 17 91 18 143 3z m121 -2189 c177 -65 272 -185 301 -376 l6 -43
-1182 0 -1182 0 6 43 c18 120 53 195 126 267 68 68 145 107 250 124 14 2 387
3 830 2 683 -2 811 -4 845 -17z"/>
</g>
</svg>
